<?xml version="1.0" encoding="UTF-8"?>
<svg width="16px" height="19px" viewBox="0 0 16 19" version="1.1" xmlns="http://www.w3.org/2000/svg" xmlns:xlink="http://www.w3.org/1999/xlink">
    <!-- Generator: Sketch 46.2 (44496) - http://www.bohemiancoding.com/sketch -->
    <title>File Icon</title>
    <desc>Created with Sketch.</desc>
    <defs></defs>
    <g id="Symbols" stroke="none" stroke-width="1" fill="none" fill-rule="evenodd">
        <g id="Rows-File" transform="translate(-42.000000, -10.000000)" stroke="#709FBE" stroke-width="1.5">
            <g id="File-Icon" transform="translate(43.000000, 11.500000)">
                <path d="M2,0 L9.15349214,0 L9.15349214,2.22044605e-15 C9.69459471,2.12104712e-15 10.2126066,0.21925058 10.5892929,0.607708328 L13.4358008,3.54316956 L13.4358008,3.54316956 C13.7976433,3.91631961 14,4.41568153 14,4.93546123 L14,14.5 L14,14.5 C14,15.6045695 13.1045695,16.5 12,16.5 L2,16.5 L2,16.5 C0.8954305,16.5 1.3527075e-16,15.6045695 0,14.5 L0,2 L0,2 C-1.3527075e-16,0.8954305 0.8954305,2.02906125e-16 2,0 Z" id="Combined-Shape"></path>
                <path d="M9,-2.10983741e-14 L9.15349214,-2.44716391e-14 L9.15349214,-2.44249065e-14 C9.69459471,-3.65391961e-14 10.2126066,0.21925058 10.5892929,0.607708328 L13.4515087,3.55936839 L13.4515087,3.55936839 C13.8032771,3.92212952 14,4.40758862 14,4.91289706 L14,4.91289706 L14,4.91289706 C14,5.34804059 13.6472465,5.70079412 13.2121029,5.70079412 L10,5.70079412 L10,5.70079412 C8.8954305,5.70079412 8,4.80536362 8,3.70079412 L8,1 L8,1 C8,0.44771525 8.44771525,-8.7295995e-15 9,-2.10942375e-14 Z" id="Combined-Shape"></path>
            </g>
        </g>
    </g>
</svg>