<?xml version="1.0" standalone="no"?> 
<!DOCTYPE svg PUBLIC "-//W3C//DTD SVG 1.1//EN" "http://www.w3.org/Graphics/SVG/1.1/DTD/svg11.dtd" >
<svg xmlns="http://www.w3.org/2000/svg">
<defs>
  <font id="ssheet-webfont" horiz-adv-x="20">
    <font-face font-family="ssheet-webfont"
      units-per-em="1000" ascent="1000"
      descent="0" />
    <missing-glyph horiz-adv-x="0" />
    <glyph glyph-name="add-comment"
      unicode="&#xF001;"
      horiz-adv-x="1000" d="M475 550H325V600H475V750H525V600H675V550H525V400H475V550zM925 875V225C925 210 915 200 900 200H625L415 75C400 65 375 75 375 94.9999999999999V200H100C85 200 75 210 75 225V875C75 890 85 900 100 900H900C915 900 925 890 925 875zM875 850H125V250H425V140L610 250H875V850z" />
    <glyph glyph-name="add-dropdown"
      unicode="&#xF002;"
      horiz-adv-x="1000" d="M100 900V700H600V900H100zM600 950H650H925C940 950 950 940 950 925V700V650V75C950 60 940 50 925 50H75C60 50 50 60 50 75V650V700V925C50 940 60 950 75 950H600zM650 900V700H900V900H650zM900 100V650H100V100H900zM700 850L775 775L850 850H700zM200 500H550V550H200V500zM450 350H200V400H450V350zM200 200H350V250H200V200zM750 595C740 605 725 600 715 590L509.9999999999999 300L489.9999999999999 185C489.9999999999999 175 489.9999999999999 165 499.9999999999999 160C509.9999999999999 154.9999999999999 519.9999999999999 154.9999999999999 524.9999999999999 160L629.9999999999999 215L839.9999999999999 504.9999999999999C849.9999999999998 514.9999999999999 844.9999999999999 529.9999999999999 834.9999999999998 539.9999999999999L750 595zM570 295L745 540L785 510.0000000000001L610 265L570 295z" />
    <glyph glyph-name="add-image"
      unicode="&#xF003;"
      horiz-adv-x="1000" d="M75 950C60 950 50 940 50 925V75C50 60 60 50 75 50H925C940 50 950 60 950 75V925C950 940 940 950 925 950H75zM100 325V900H900V360L685 635C680 640 675 645 665 645C655 645 649.9999999999999 640 644.9999999999999 635L450 395L330 520C320 530 305 530 295 520L100 325zM665 580L900 280V100H100V255L310 465L435 340C440 335 445 330.0000000000001 455 335C459.9999999999999 335 470 340 475 345L665 580zM370 660C410.0000000000001 660 440.0000000000001 690 440.0000000000001 730C440.0000000000001 770 410 800 370 800C330 800 300 770 300 730C300 690 330 660 370 660z" />
    <glyph glyph-name="add-link"
      unicode="&#xF004;"
      horiz-adv-x="1000" d="M574.9999999999999 830C619.9999999999999 875 669.9999999999999 895 714.9999999999999 895C759.9999999999999 895 805 875 834.9999999999999 840C864.9999999999999 810 889.9999999999999 765 889.9999999999999 720C889.9999999999999 675 874.9999999999999 625 830 575L775 520L810 485L865.0000000000001 540V540L865.0000000000001 540C920.0000000000002 595 940.0000000000002 660 940.0000000000002 720C940.0000000000002 780 910.0000000000002 835 870.0000000000001 875C830.0000000000001 915 775.0000000000001 940 715.0000000000002 945C655.0000000000002 945 595.0000000000001 925 540.0000000000002 865L374.9999999999999 700L374.9999999999999 700L374.9999999999999 700C314.9999999999999 635 294.9999999999999 565 304.9999999999999 500C314.9999999999999 435 354.9999999999999 375 404.9999999999999 340L434.9999999999999 380.0000000000001C394.9999999999999 410 359.9999999999999 455.0000000000001 354.9999999999999 505.0000000000001C349.9999999999999 555 364.9999999999999 615 414.9999999999999 665L574.9999999999999 830L574.9999999999999 830L574.9999999999999 830zM424.9999999999999 169.9999999999999C379.9999999999999 125 329.9999999999999 104.9999999999999 284.9999999999999 104.9999999999999C239.9999999999999 104.9999999999999 194.9999999999999 124.9999999999998 164.9999999999999 160C134.9999999999999 190 109.9999999999999 235 109.9999999999999 280C109.9999999999999 325 124.9999999999999 375 169.9999999999999 425L224.9999999999999 480L189.9999999999999 515L134.9999999999999 460H134.9999999999999L134.9999999999999 460C79.9999999999999 405.0000000000001 59.9999999999999 340 59.9999999999999 280.0000000000001C59.9999999999999 220.0000000000001 89.9999999999999 165 129.9999999999999 125C169.9999999999999 85 224.9999999999999 60 284.9999999999999 55.0000000000001C344.9999999999999 55.0000000000001 404.9999999999999 75 459.9999999999998 135.0000000000001L624.9999999999999 300.0000000000003L624.9999999999999 300.0000000000003L624.9999999999999 300.0000000000003C684.9999999999999 365.0000000000003 709.9999999999999 435.0000000000001 699.9999999999999 505.0000000000002C689.9999999999999 570.0000000000002 649.9999999999999 630.0000000000002 599.9999999999999 665.0000000000002L569.9999999999999 625.0000000000002C609.9999999999999 595.0000000000002 644.9999999999999 550.0000000000002 649.9999999999999 500.0000000000002C654.9999999999999 450.0000000000003 639.9999999999999 390.0000000000003 589.9999999999999 340.0000000000003L424.9999999999999 169.9999999999999L424.9999999999999 169.9999999999999L424.9999999999999 169.9999999999999z" />
    <glyph glyph-name="add-range"
      unicode="&#xF005;"
      horiz-adv-x="1000" d="M900 850L725 650L550 850H900zM900 500H100V550H900V500zM275 400L100 200H450L275 400z" />
    <glyph glyph-name="add-sparkline"
      unicode="&#xF006;"
      horiz-adv-x="1000" d="M957.5 710L597.5 400C587.5 390 572.5 390 562.5 405L417.5 575L77.5 280L42.5 320L402.5 630C412.5 640 427.5 640 437.5 625L582.5 455.0000000000001L927.5 750L957.5 710z" />
    <glyph glyph-name="background"
      unicode="&#xF007;"
      horiz-adv-x="1000" d="M787.5 500L412.5 875L377.5000000000001 840L447.5000000000001 770L142.5000000000001 465C122.5000000000001 445 122.5000000000001 415 142.5000000000001 395L377.5000000000001 160C397.5000000000001 140 427.5000000000001 140 447.5000000000001 160L787.5 500zM252.5 500L487.5 735L722.5 500H252.5zM787.5 400L787.5 400C742.5 325 727.5 300 717.5 275C697.5 200 742.5 150 787.5 150C832.4999999999999 150 877.5 200 857.4999999999999 275C847.5 300 832.4999999999999 325 787.5 400z" />
    <glyph glyph-name="borders-all"
      unicode="&#xF008;"
      horiz-adv-x="1000" d="M900 950H525H475H100C85 950 75 940 75 925V550V500V125C75 110 85 100 100 100H475H525H900C915 100 925 110 925 125V500V550V925C925 940 915 950 900 950zM475 150H125V500H475V150zM475 550H125V900H475V550zM875 150H525V500H875V150zM875 550H525V900H875V550z" />
    <glyph glyph-name="borders-bottom"
      unicode="&#xF009;"
      horiz-adv-x="1000" d="M100 950C85 950 75 940 75 925V900H125V950H100zM925 125C925 110 915 100 900 100H875H825H775H725H675H625H575H525H475H425H375H325H275H225H175H125H100C85 100 75 110 75 125V150H100H125H175H225H275H325H375H425H475H525H575H625H675H725H775H825H875H900H925V125zM175 950H225V900H175V950zM75 850V800H125V850H75zM125 750V700H75V750H125zM75 650V600H125V650H75zM125 550V500H75V550H125zM75 450V400H125V450H75zM125 350V300H75V350H125zM75 250V200H125V250H75zM875 250H925V200H875V250zM925 350H875V300H925V350zM875 450H925V400H875V450zM925 550H875V500H925V550zM875 650H925V600H875V650zM925 750H875V700H925V750zM325 950H275V900H325V950zM375 950H425V900H375V950zM525 950H475V900H525V950zM575 950H625V900H575V950zM725 950H675V900H725V950zM775 950H825V900H775V950zM900 950C915 950 925 940 925 925V900H875V950H900zM925 850H875V800H925V850zM475 850H525V800H475V850zM475 750H525V700H475V750zM525 650H475V600H525V650zM475 550H525V500H475V550zM525 450H475V400H525V450zM475 350H525V300H475V350zM525 250H475V200H525V250zM225 550H175V500H225V550zM275 550H325V500H275V550zM425 550H375V500H425V550zM675 550H725V500H675V550zM775 550H825V500H775V550zM575 550H625V500H575V550z" />
    <glyph glyph-name="borders-left"
      unicode="&#xF00A;"
      horiz-adv-x="1000" d="M925 925C925 940 915 950 900 950H875V900H925V925zM100 100C85 100 75 110 75 125V150V200V250V300V350V400V450V500V550V600V650V700V750V800V850V900V925C75 940 85 950 100 950H125V925V900V850V800V750V700V650V600V550V500V450V400V350V300V250V200V150V125V100H100zM925 850V800H875V850H925zM825 950H775V900H825V950zM725 900H675V950H725V900zM625 950H575V900H625V950zM525 900H475V950H525V900zM425 950H375V900H425V950zM325 900H275V950H325V900zM225 950H175V900H225V950zM225 150V100H175V150H225zM325 100V150H275V100H325zM425 150V100H375V150H425zM525 100V150H475V100H525zM625 150V100H575V150H625zM725 100V150H675V100H725zM925 700V750H875V700H925zM925 650V600H875V650H925zM925 500V550H875V500H925zM925 450V400H875V450H925zM925 300V350H875V300H925zM925 250V200H875V250H925zM925 125C925 110 915 100 900 100H875V150H925V125zM825 100V150H775V100H825zM825 550V500H775V550H825zM725 550V500H675V550H725zM625 500V550H575V500H625zM525 550V500H475V550H525zM425 500V550H375V500H425zM325 550V500H275V550H325zM225 500V550H175V500H225zM525 800V850H475V800H525zM525 750V700H475V750H525zM525 600V650H475V600H525zM525 350V300H475V350H525zM525 250V200H475V250H525zM525 450V400H475V450H525z" />
    <glyph glyph-name="borders-no"
      unicode="&#xF00B;"
      horiz-adv-x="1000" d="M75 925C75 940 85 950 100 950H125V900H75V925zM900 100C915 100 925 110 925 125V150H875V100H900zM225 950H175V900H225V950zM75 800V850H125V800H75zM125 700V750H75V700H125zM75 600V650H125V600H75zM125 500V550H75V500H125zM75 400V450H125V400H75zM125 300V350H75V300H125zM75 200V250H125V200H75zM325 150H275V100H325V150zM375 150H425V100H375V150zM525 150H475V100H525V150zM575 150H625V100H575V150zM725 150H675V100H725V150zM775 150H825V100H775V150zM925 250H875V200H925V250zM875 350H925V300H875V350zM925 450H875V400H925V450zM875 550H925V500H875V550zM925 650H875V600H925V650zM875 750H925V700H875V750zM275 950H325V900H275V950zM425 950H375V900H425V950zM475 950H525V900H475V950zM625 950H575V900H625V950zM675 950H725V900H675V950zM825 950H775V900H825V950zM75 125C75 110 85 100 100 100H125V150H75V125zM225 150H175V100H225V150zM925 925C925 940 915 950 900 950H875V900H925V925zM875 850H925V800H875V850zM525 850H475V800H525V850zM525 750H475V700H525V750zM475 650H525V600H475V650zM525 550H475V500H525V550zM475 450H525V400H475V450zM525 350H475V300H525V350zM475 250H525V200H475V250zM175 550H225V500H175V550zM325 550H275V500H325V550zM375 550H425V500H375V550zM725 550H675V500H725V550zM825 550H775V500H825V550zM625 550H575V500H625V550z" />
    <glyph glyph-name="borders-outer"
      unicode="&#xF00C;"
      horiz-adv-x="1000" d="M925 125C925 110 915 100 900 100H885H875H825H775H725H675H625H575H525H475H425H375H325H275H225H175H125H115H100C85 100 75 110 75 125V135V150V200V250V300V350V400V450V500V550V600V650V700V750V800V850V900V925C75 940 85 950 100 950H125H175H225H275H325H375H425H475H525H575H625H675H725H775H825H875H900C915 950 925 940 925 925V900V850V800V750V700V650V600V550V500V450V400V350V300V250V200V150V135V125zM125 900V850V800V750V700V650V600V550V500V450V400V350V300V250V200V150H175H225H275H325H375H425H475H525H575H625H675H725H775H825H875V200V250V300V350V400V450V500V550V600V650V700V750V800V850V900H825H775H725H675H625H575H525H475H425H375H325H275H225H175H125zM475 200H525V250H475V200zM475 300H525V350H475V300zM525 400H475V450H525V400zM475 500H525V550H475V500zM525 600H475V650H525V600zM475 700H525V750H475V700zM525 800H475V850H525V800zM825 500H775V550H825V500zM675 500H725V550H675V500zM625 500H575V550H625V500zM275 500H325V550H275V500zM175 500H225V550H175V500zM375 500H425V550H375V500z" />
    <glyph glyph-name="borders-right"
      unicode="&#xF00D;"
      horiz-adv-x="1000" d="M75 125C75 110 85 100 100 100H125V150H75V125zM900 950C915 950 925 940 925 925V900V850V800V750V700V650V600V550V500V450V400V350V300V250V200V150V125C925 110 915 100 900 100H875V125V150V200V250V300V350V400V450V500V550V600V650V700V750V800V850V900V925V950H900zM75 200V250H125V200H75zM175 100H225V150H175V100zM275 150H325V100H275V150zM375 100H425V150H375V100zM475 150H525V100H475V150zM575 100H625V150H575V100zM675 150H725V100H675V150zM775 100H825V150H775V100zM775 900V950H825V900H775zM675 950V900H725V950H675zM575 900V950H625V900H575zM475 950V900H525V950H475zM375 900V950H425V900H375zM275 950V900H325V950H275zM75 350V300H125V350H75zM75 400V450H125V400H75zM75 550V500H125V550H75zM75 600V650H125V600H75zM75 750V700H125V750H75zM75 800V850H125V800H75zM75 925C75 940 85 950 100 950H125V900H75V925zM175 950V900H225V950H175zM175 500V550H225V500H175zM275 500V550H325V500H275zM375 550V500H425V550H375zM475 500V550H525V500H475zM575 550V500H625V550H575zM675 500V550H725V500H675zM775 550V500H825V550H775zM475 250V200H525V250H475zM475 300V350H525V300H475zM475 450V400H525V450H475zM475 700V750H525V700H475zM475 800V850H525V800H475zM475 600V650H525V600H475z" />
    <glyph glyph-name="borders-top-bottom"
      unicode="&#xF00E;"
      horiz-adv-x="1000" d="M925 125C925 110 915 100 900 100H885H875H825H775H725H675H625H575H525H475H425H375H325H275H225H175H125H115H100C85 100 75 110 75 125V150H115H125H175H225H275H325H375H425H475H525H575H625H675H725H775H825H875H885H925V125zM100 950C85 950 75 940 75 925V900H100H125H175H225H275H325H375H425H475H525H575H625H675H725H775H825H875H900H925V925C925 940 915 950 900 950H875H825H775H725H675H625H575H525H475H425H375H325H275H225H175H125H100zM925 250V200H875V250H925zM875 350V300H925V350H875zM925 450V400H875V450H925zM875 550V500H925V550H875zM925 650V600H875V650H925zM875 750V700H925V750H875zM925 850V800H875V850H925zM75 850V800H125V850H75zM125 750V700H75V750H125zM75 650V600H125V650H75zM125 550V500H75V550H125zM75 450V400H125V450H75zM125 350V300H75V350H125zM125 250V200H75V250H125zM475 200H525V250H475V200zM475 300H525V350H475V300zM525 400H475V450H525V400zM475 500H525V550H475V500zM525 600H475V650H525V600zM475 700H525V750H475V700zM525 800H475V850H525V800zM825 500H775V550H825V500zM675 500H725V550H675V500zM625 500H575V550H625V500zM275 500H325V550H275V500zM175 500H225V550H175V500zM375 500H425V550H375V500z" />
    <glyph glyph-name="borders-top"
      unicode="&#xF00F;"
      horiz-adv-x="1000" d="M900 100C915 100 925 110 925 125V150H875V100H900zM75 925C75 940 85 950 100 950H125H175H225H275H325H375H425H475H525H575H625H675H725H775H825H875H900C915 950 925 940 925 925V900H900H875H825H775H725H675H625H575H525H475H425H375H325H275H225H175H125H100H75V925zM825 100H775V150H825V100zM925 200V250H875V200H925zM875 300V350H925V300H875zM925 400V450H875V400H925zM875 500V550H925V500H875zM925 600V650H875V600H925zM875 700V750H925V700H875zM925 800V850H875V800H925zM125 800H75V850H125V800zM75 700H125V750H75V700zM125 600H75V650H125V600zM75 500H125V550H75V500zM125 400H75V450H125V400zM75 300H125V350H75V300zM675 100H725V150H675V100zM625 100H575V150H625V100zM475 100H525V150H475V100zM425 100H375V150H425V100zM275 100H325V150H275V100zM225 100H175V150H225V100zM100 100C85 100 75 110 75 125V150H125V100H100zM75 200H125V250H75V200zM525 200H475V250H525V200zM525 300H475V350H525V300zM475 400H525V450H475V400zM525 500H475V550H525V500zM475 600H525V650H475V600zM525 700H475V750H525V700zM475 800H525V850H475V800zM775 500H825V550H775V500zM725 500H675V550H725V500zM575 500H625V550H575V500zM325 500H275V550H325V500zM225 500H175V550H225V500zM425 500H375V550H425V500z" />
    <glyph glyph-name="bottom"
      unicode="&#xF010;"
      horiz-adv-x="1000" d="M50 100H950V50H50V100zM500 400H350L525 200L700 400H550V950H500V400z" />
    <glyph glyph-name="center"
      unicode="&#xF011;"
      horiz-adv-x="1000" d="M900 900H100V950H900V900zM250 700H700V750H250V700zM900 500H100V550H900V500zM250 300H700V350H250V300zM100 100H900V150H100V100z" />
    <glyph glyph-name="clear-styles"
      unicode="&#xF012;"
      horiz-adv-x="1000" d="M682.5 945C677.5 950 672.5 950 662.5 950S647.5 950 642.5 945L52.5 355C42.5 345 42.5 330 52.5 320L312.5000000000001 60C317.5 55.0000000000001 322.5 50 327.5 50L947.5 50V100L392.5 100L942.4999999999998 650C952.4999999999998 660 952.4999999999998 675 942.4999999999998 685L682.5 945zM622.5 405L327.5 110L102.5 335L397.5 630L622.5 405z" />
    <glyph glyph-name="close"
      unicode="&#xF013;"
      horiz-adv-x="1000" d="M502.5 445L832.5 115L867.5 150L537.5 480L867.5 810L832.5 850L502.5 520L167.5 850L132.5 815L462.5 485L132.5 150L167.5 115L502.5 445z" />
    <glyph glyph-name="color"
      unicode="&#xF014;"
      horiz-adv-x="1000" d="M532.5 840C517.4999999999999 870 477.5 870 467.4999999999999 840L127.5 160L172.5 140L302.5 400H697.5L827.5000000000001 140L872.5 160L532.5 840zM327.5 450L497.5 795L667.5 450H327.5z" />
    <glyph glyph-name="column"
      unicode="&#xF015;"
      horiz-adv-x="1000" d="M900 950H100C85 950 75 940 75 925V125C75 110 85 100 100 100H900C915 100 925 110 925 125V925C925 940 915 950 900 950zM325 150H125V900H325V150zM625 150H375V900H625V150zM875 150H675V900H875V150z" />
    <glyph glyph-name="conditional-format"
      unicode="&#xF016;"
      horiz-adv-x="1000" d="M900 950H525H475H100C85 950 75 940 75 925V550V500V125C75 110 85 100 100 100H900C915 100 925 110 925 125V500V550V925C925 940 915 950 900 950zM475 150H125V500H475V150zM475 550H125V900H475V550zM875 150H525V500H875V150zM875 550H525V900H875V550zM185 620L350 725L185 830L210 870L395 755C420 740 420 705 395 690L215 580L185 620zM210 250H175V300H250L290 350H175V400H330L380 465L420 435L390 400H425V350H350L310 300H425V250H270.0000000000001L220 185L180 215L210 250zM825 650H575V700H825V650zM825 750H575V800H825V750zM605 295C580 310 580 345 605 360L790 475L815 435L650 330L815 225L790 185L605 295z" />
    <glyph glyph-name="create-filter"
      unicode="&#xF017;"
      horiz-adv-x="1000" d="M100 935C105 945 115 950 125 950H875C885 950 894.9999999999998 945 900 935C905.0000000000002 925 900 915 894.9999999999998 910L575 550V175C575 165 570 160 565 155.0000000000001L465.0000000000001 80.0000000000001C455.0000000000001 75 445 75 440.0000000000001 80.0000000000001C430 80.0000000000001 425 90 425 100V550L105 910C100 915 100 925 100 935zM180 900L475 570V150L525 190V570L819.9999999999999 900H180z" />
    <glyph glyph-name="decrease-decimals"
      unicode="&#xF018;"
      horiz-adv-x="1000" d="M150 450H250V350H150V450zM400 450C315 450 250 515 250 600V800C250 885 315 950 400 950S550 885 550 800V600C550 515 484.9999999999999 450 400 450zM400 500C455 500 500 545 500 600V800C500 855 455 900 400 900S300 855 300 800V600C300 545 345 500 400 500zM600 250V400L400 225L600 50V200H850V250H600z" />
    <glyph glyph-name="excel-export"
      unicode="&#xF019;"
      horiz-adv-x="1000" d="M125 900C125 930 145 950 175 950H825C855.0000000000001 950 875 930 875 900V350C875 320 855.0000000000001 300 825 300H625V350H825V900H175V350H375V300H175C145 300 125 320 125 350V900zM475 400H525V200H625L500 50L375 200H475V400zM585 800L625 770L534.9999999999999 635L625 500L585 470L500 600L415 475L375 500L465.0000000000001 635L375 770L415 800L500 675L585 800z" />
    <glyph glyph-name="excel-import"
      unicode="&#xF01A;"
      horiz-adv-x="1000" d="M475 950V750H375L500 600L625 750H525V950H475zM175 50C145 50 125 69.9999999999999 125 100V650C125 680 145 700 175 700H325V650H175V100H825V650H675V700H825C855.0000000000001 700 875 680 875 650V100C875 69.9999999999999 855.0000000000001 50 825 50H175zM465.0000000000001 360L375 225L415 194.9999999999999L500 319.9999999999999L585 194.9999999999999L625 224.9999999999999L534.9999999999999 360L625 494.9999999999999L585 524.9999999999999L500 400L415 525L375 495L465.0000000000001 360z" />
    <glyph glyph-name="format"
      unicode="&#xF01B;"
      horiz-adv-x="1000" d="M700 935C690 945 675 945 665 935L365.0000000000001 625L315.0000000000001 495C310.0000000000001 485 315.0000000000001 475 320 470C325 465 340.0000000000001 460 345 465L475 520L775 830C785 840 785 855 775 865L700 935zM420 610L685 880L725 840L459.9999999999999 570L420 610zM100 450H200V500H100V450zM200 250H100V300H200V250zM100 50H200V100H100V50zM300 50H900V100H300V50zM900 250H300V300H900V250zM500 450H900V500H550L500 450z" />
    <glyph glyph-name="freeze-columns"
      unicode="&#xF01C;"
      horiz-adv-x="1000" d="M900 950H100C85 950 75 940 75 925V125C75 110 85 100 100 100H900C915 100 925 110 925 125V925C925 940 915 950 900 950zM125 150V265L255 150H125zM325 155.0000000000001L125 335V475L325 285V155.0000000000001zM325 350L125 540V685L325 505V350zM325 570L125 755V900L325 730V570zM325 795L200 900H325V795zM625 150H375V900H625V150zM875 150H675V900H875V150z" />
    <glyph glyph-name="freeze-rows"
      unicode="&#xF01D;"
      horiz-adv-x="1000" d="M900 950H100C85 950 75 940 75 925V125C75 110 85 100 100 100H900C915 100 925 110 925 125V925C925 940 915 950 900 950zM875 900L705 700H550L730 900H875zM660 900L480 700H325L515.0000000000001 900H660zM450 900L255 700H130L310 900H450zM125 900H240L125 770V900zM875 150H125V350H875V150zM875 400H125V650H875V400zM875 700H770L875 825V700z" />
    <glyph glyph-name="hide-gridlines"
      unicode="&#xF01E;"
      horiz-adv-x="1000" d="M100 950C85 950 75 940 75 925V900H125V950H100zM925 125C925 110 915 100 900 100H875V150H925V125zM175 950H225V900H175V950zM125 850H75V800H125V850zM75 750H125V700H75V750zM125 650H75V600H125V650zM75 550H125V500H75V550zM125 450H75V400H125V450zM75 350H125V300H75V350zM125 250H75V200H125V250zM275 150H325V100H275V150zM425 150H375V100H425V150zM475 150H525V100H475V150zM625 150H575V100H625V150zM675 150H725V100H675V150zM825 150H775V100H825V150zM875 250H925V200H875V250zM925 350H875V300H925V350zM875 450H925V400H875V450zM925 550H875V500H925V550zM875 650H925V600H875V650zM925 750H875V700H925V750zM325 950H275V900H325V950zM375 950H425V900H375V950zM525 950H475V900H525V950zM575 950H625V900H575V950zM725 950H675V900H725V950zM775 950H825V900H775V950zM100 100C85 100 75 110 75 125V150H125V100H100zM225 150H175V100H225V150zM900 950C915 950 925 940 925 925V900H875V950H900zM875 850H925V800H875V850z" />
    <glyph glyph-name="hide-headers"
      unicode="&#xF01F;"
      horiz-adv-x="1000" d="M75 925C75 940 85 950 100 950H925V900H125V100H75V925z" />
    <glyph glyph-name="increase-decimals"
      unicode="&#xF020;"
      horiz-adv-x="1000" d="M700 450C785 450 850 515 850 600V800C850 885 785 950 700 950S550 885 550 800V600C550 515 615 450 700 450zM600 800C600 855 645 900 700 900S800 855 800 800V600C800 545 755 500 700 500S600 545 600 600V800zM100 450H200V350H100V450zM700 50V200H500V250H700V400L900 225L700 50zM500 800C500 885 435 950 350 950S200 885 200 800V600C200 515 265 450 350 450S500 515 500 600V800zM450 600C450 545 405 500 350 500S250 545 250 600V800C250 855 295 900 350 900S450 855 450 800V600z" />
    <glyph glyph-name="left"
      unicode="&#xF021;"
      horiz-adv-x="1000" d="M100 900H900V950H100V900zM600 700H100V750H600V700zM100 500H900V550H100V500zM600 300H100V350H600V300zM900 100H100V150H900V100z" />
    <glyph glyph-name="lock-cell-fill"
      unicode="&#xF022;"
      horiz-adv-x="1000" d="M825 500H750V700C750 780 720 845 670 885C625 930 560 950 500 950S375 930 330 885C280 845 250 780 250 700V500H175C160 500 150 490.0000000000001 150 475V75C150 60 160 50 175 50H825C840 50 850 60 850 75V475C850 490.0000000000001 840 500 825 500zM300 700C300 770 325 820 360 850C400 885 450 900 500 900C550 900 600 885 640 850C675 820 700 770 700 700V500H300V700zM500 225C470 225 450 245 450 275S470 325 500 325S550 305 550 275S530 225 500 225z" />
    <glyph glyph-name="lock-cell"
      unicode="&#xF023;"
      horiz-adv-x="1000" d="M450 275C450 305 470 325 500 325S550 305 550 275S530 225 500 225S450 245 450 275zM850 475V75C850 60 840 50 825 50H175C160 50 150 60 150 75V475C150 490.0000000000001 160 500 175 500H250V700C250 780 280 845 330 885C375 930 440.0000000000001 950 500 950S625 930 670 885C720 845 750 780 750 700V500H825C840 500 850 490.0000000000001 850 475zM300 500H700V700C700 770 675 820 640 850C600 885 550 900 500 900C450 900 400 885 360 850C325 820 300 770 300 700V500zM800 450H200V100H800V450z" />
    <glyph glyph-name="middle"
      unicode="&#xF024;"
      horiz-adv-x="1000" d="M500 250V100H450V250H300L475 450L650 250H500zM950 500V550H50V500H950zM500 800H650L475 600L300 800H450L450 950H500L500 800z" />
    <glyph glyph-name="print"
      unicode="&#xF025;"
      horiz-adv-x="1000" d="M875 550H800V775L635 950H250C220 950 200 930 200 900V550H125C85 550 50 515 50 475V200H200V100C200 69.9999999999999 220 50 250 50H750C780 50 800 69.9999999999999 800 100V200H950V475C950 515 915 550 875 550zM750 100H250V250H750V100zM750 450H250V900H600V750H750V450zM900 450H800V500H900V450z" />
    <glyph glyph-name="redo"
      unicode="&#xF026;"
      horiz-adv-x="1000" d="M600 650H850V900L750 800C690 845 610 870 530 870C320 865 150 700 150 495C150 290 320 125 530 125C650 125 760 180.0000000000001 830.0000000000001 270L790 300C730.0000000000001 225 635 175 530.0000000000001 175C350.0000000000001 175 200.0000000000001 320 200.0000000000001 495C200.0000000000001 670 345.0000000000001 815 530.0000000000001 815C600.0000000000001 815 660 795 715 760L600 650z" />
    <glyph glyph-name="right"
      unicode="&#xF027;"
      horiz-adv-x="1000" d="M900 900H100V950H900V900zM400 700H900V750H400V700zM900 500H100V550H900V500zM400 300H900V350H400V300zM100 100H900V150H100V100z" />
    <glyph glyph-name="row"
      unicode="&#xF028;"
      horiz-adv-x="1000" d="M900 950H100C85 950 75 940 75 925V125C75 110 85 100 100 100H900C915 100 925 110 925 125V925C925 940 915 950 900 950zM875 150H125V350H875V150zM875 400H125V650H875V400zM875 700H125V900H875V700z" />
    <glyph glyph-name="sheet"
      unicode="&#xF029;"
      horiz-adv-x="1000" d="M125 950C111.193 950 100 938.807 100 925V300H150V900L600 900V950H125zM275 800.001C261.193 800.001 250 788.808 250 775.001V75C250 61.1950000000001 261.193 50 275 50H875C888.805 50 900 61.1950000000001 900 75V510.3515L596.465 800.001H275zM300 100V750.001H550V475.005C550 461.2 561.195 450.005 575 450.005L850 450V100H300z" />
    <glyph glyph-name="sort-asc"
      unicode="&#xF02A;"
      horiz-adv-x="1000" d="M200 250V950H250V250H400L225 50L50 250H200zM800 350V400H400V350H800zM400 150H950V100H400V150zM700 650H400V600H700V650zM400 900H600V850H400V900z" />
    <glyph glyph-name="sort-desc"
      unicode="&#xF02B;"
      horiz-adv-x="1000" d="M200 750H50L225 950L400 750H250V50H200V750zM800 600H400V650H800V600zM400 850H950V900H400V850zM700 350H400V400H700V350zM400 100H600V150H400V100z" />
    <glyph glyph-name="span"
      unicode="&#xF02C;"
      horiz-adv-x="1000" d="M125 700V900H475V700H125zM525 950H475H100C85 950 75 940 75 925V700V650V125C75 110 85 100 100 100H900C915 100 925 110 925 125V650V700V925C925 940 915 950 900 950H525zM525 700V900H875V700H525zM875 650V150H125V650H875zM675 315V395H325V315L175 420L325 525V445H675V525L825 420L675 315z" />
    <glyph glyph-name="top"
      unicode="&#xF02D;"
      horiz-adv-x="1000" d="M950 900H50V950H950V900zM500 600H650L475 800L300 600H450V50H500V600z" />
    <glyph glyph-name="undo"
      unicode="&#xF02E;"
      horiz-adv-x="1000" d="M392.5000000000001 650L142.5000000000001 650L142.5000000000001 900L252.5000000000001 790C312.5000000000001 840 392.5000000000001 865 477.4999999999999 865C687.5 865 857.5 700 857.5 494.9999999999999C857.5 290 687.5 125 477.4999999999999 125C357.5 125 247.5 180.0000000000001 177.5 270L217.5000000000001 300C277.5000000000001 225 372.5000000000001 175 477.4999999999999 175C657.5 175 807.5 320 807.5 495C807.5 670 662.5 815 477.4999999999999 815C407.5 815 337.5 790 282.5 755L392.5000000000001 650z" />
    <glyph glyph-name="wrap"
      unicode="&#xF02F;"
      horiz-adv-x="1000" d="M37.5 900H937.5V950H37.5V900zM37.5 600V550H712.5C852.5 550 912.5 470 912.5 400S852.5 250 712.5 250H622.5V385L462.5 225L622.5 65V200H712.5C872.5 200 962.5 295 962.5 400C962.5 505 872.5 600 712.5 600H37.5zM337.5 200H37.5V250H337.5V200z" />
  </font>
</defs>
</svg>
