<?xml version="1.0" encoding="utf-8"?>
<!-- Generator: Adobe Illustrator 23.1.1, SVG Export Plug-In . SVG Version: 6.00 Build 0)  -->
<svg version="1.1" id="Layer_1" xmlns="http://www.w3.org/2000/svg" xmlns:xlink="http://www.w3.org/1999/xlink" x="0px" y="0px"
	 viewBox="0 0 2422 783.1" style="enable-background:new 0 0 2422 783.1;" xml:space="preserve">
<style type="text/css">
	.st0{fill:#26262D;}
	.st1{fill:#2C3ACF;}
	.st2{fill:#FFFFFF;}
</style>
<g>
	<path class="st0" d="M1207,245.3c-6.9,0-12.5,3.1-16.8,9.4L1093,399.1l-94.8-144.6c-1.9-3-4.7-5.3-8.2-6.9
		c-3.5-1.6-6.9-2.4-10.2-2.4c-5.7,0-10.7,2.1-14.8,6.2c-4.2,4.1-6.3,9-6.3,14.7V511c0,6,1.8,10.9,5.5,14.9c3.7,3.9,8.4,5.9,14.1,5.9
		c6,0,10.8-1.9,14.5-5.9c3.7-3.9,5.5-8.9,5.5-14.9V324l76.8,119.5c1.9,2.4,4.5,4.5,7.6,6.3c3.1,1.7,6.2,2.5,9.2,2.2
		c3.3,0.3,6.4-0.4,9.4-2.2c2.9-1.7,5.4-3.8,7.3-6.3l76.8-117v184.3c0,6,2,11,5.9,14.9s9.2,5.9,15.7,5.9c6.3,0,11.3-1.9,15.1-5.9
		c3.8-3.9,5.7-8.9,5.7-14.9V266.1c0-6-2.1-11-6.3-14.9C1217.3,247.3,1212.4,245.3,1207,245.3z"/>
	<path class="st0" d="M1464.3,313.5c-6,0-10.9,2-14.7,6.1c-3.8,4.1-5.7,9-5.7,14.7v8.2c-3.1-3.5-6.6-6.9-10.6-10.2
		c-7.3-6-16-10.9-25.9-14.7c-10-3.8-20.8-5.7-32.5-5.7c-18.2,0-34.8,4.8-49.6,14.3s-26.6,22.6-35.3,39.4
		c-8.8,16.7-13.1,36.1-13.1,58.2c0,21.5,4.4,40.7,13.1,57.6c8.7,16.9,20.5,30.1,35.5,39.8s31.9,14.5,50.7,14.5
		c10.6,0,20.5-1.8,29.8-5.5c9.3-3.7,17.3-8.3,24.1-13.9c5.6-4.6,10.2-9.3,13.8-14.1v8.6c0,6,1.9,10.9,5.7,14.9
		c3.8,3.9,8.7,5.9,14.7,5.9c5.7,0,10.6-1.9,14.5-5.9c3.9-3.9,5.9-8.9,5.9-14.9V334.3c0-6-2-10.9-5.9-14.9
		C1474.9,315.5,1470,313.5,1464.3,313.5z M1414.7,488.3c-9.7,6.5-20.9,9.8-33.7,9.8s-24-3.2-33.7-9.8c-9.7-6.6-17.3-15.5-22.7-26.8
		c-5.5-11.3-8.2-23.9-8.2-37.8c0-14.2,2.8-26.8,8.2-38c5.5-11.2,13.1-20.1,22.9-26.6s21-9.8,33.5-9.8c12.8,0,24,3.3,33.7,9.8
		c9.7,6.6,17.3,15.4,22.7,26.6c5.5,11.2,8.2,23.8,8.2,38c0,13.9-2.8,26.5-8.2,37.8C1431.9,472.8,1424.4,481.8,1414.7,488.3z"/>
	<path class="st0" d="M1670.2,426.1c-6.7-4.7-14.2-8.6-22.5-11.6c-8.3-3-16.7-5.6-25.1-7.8c-8.7-2.2-16.8-4.7-24.1-7.4
		c-7.4-2.7-13.3-6.1-17.8-10.2c-4.5-4-6.7-9.5-6.7-16.3c0-7.4,1.9-13,5.7-16.8c3.8-3.8,8.6-6.6,14.1-8s10.9-2.2,16.1-2.2
		c10.4,0,19.6,1.8,27.8,5.5c8.2,3.7,14.8,8.8,20,15.3c3,2.7,6.8,4.2,11.4,4.5c4.6,0.3,8.5-1,11.8-3.7c4.9-3.8,7.1-8.2,6.7-13.1
		c-0.4-4.9-2-9.2-4.7-12.7c-6-7.1-13-12.8-21.2-17.2c-8.1-4.4-16.6-7.6-25.3-9.6c-8.7-2.1-17-3.1-24.9-3.1
		c-13.6,0-26.2,2.6-37.8,7.8c-11.6,5.1-21,12.3-28.2,21.6c-7.2,9.3-10.8,20.3-10.8,33.1c0,11.2,2.2,20.6,6.7,28.2
		c4.5,7.6,10.3,13.8,17.4,18.6c7.1,4.7,15.1,8.6,23.9,11.6s17.6,5.7,26.3,8.2c8.2,2.1,15.8,4.5,22.9,7.1c7.1,2.6,12.8,5.9,17.2,10
		c4.3,4,6.5,9.5,6.5,16.3c0,7.7-2,13.4-6.1,17.4s-9,6.7-14.7,8.2c-5.8,1.5-11.4,2.4-16.8,2.7c-13.3,0-24.7-2.5-34.1-7.4
		c-9.4-4.9-17.9-11.5-25.5-20c-3.9-3.8-7.9-5.9-12.1-6.3c-4.3-0.4-8.3,0.6-12.1,3.1c-5.5,3.6-8.3,7.9-8.6,12.9
		c-0.2,5.1,0.9,9.5,3.3,13.3c10.6,13.9,23.6,23.7,39.1,29.3c15.4,5.6,30.9,8.4,46.4,8.4c13.1,0,25.6-2.3,37.4-7.3
		s21.6-12.1,29.4-21.5c7.7-9.4,11.6-20.7,11.6-34.1c0-11.4-2.1-20.9-6.3-28.4C1682.3,437,1676.9,430.9,1670.2,426.1z"/>
	<path class="st0" d="M1865.5,426.1c-6.7-4.7-14.2-8.6-22.5-11.6c-8.3-3-16.7-5.6-25.1-7.8c-8.7-2.2-16.8-4.7-24.1-7.4
		c-7.4-2.7-13.3-6.1-17.8-10.2c-4.5-4-6.7-9.5-6.7-16.3c0-7.4,1.9-13,5.7-16.8c3.8-3.8,8.6-6.6,14.1-8s10.9-2.2,16.1-2.2
		c10.4,0,19.6,1.8,27.8,5.5c8.2,3.7,14.8,8.8,20,15.3c3,2.7,6.8,4.2,11.4,4.5c4.6,0.3,8.5-1,11.8-3.7c4.9-3.8,7.1-8.2,6.7-13.1
		c-0.4-4.9-2-9.2-4.7-12.7c-6-7.1-13-12.8-21.2-17.2c-8.1-4.4-16.6-7.6-25.3-9.6c-8.7-2.1-17-3.1-24.9-3.1
		c-13.6,0-26.2,2.6-37.8,7.8c-11.6,5.1-21,12.3-28.2,21.6c-7.2,9.3-10.8,20.3-10.8,33.1c0,11.2,2.2,20.6,6.7,28.2
		c4.5,7.6,10.3,13.8,17.4,18.6c7.1,4.7,15.1,8.6,23.9,11.6s17.6,5.7,26.3,8.2c8.2,2.1,15.8,4.5,22.9,7.1c7.1,2.6,12.8,5.9,17.2,10
		c4.3,4,6.5,9.5,6.5,16.3c0,7.7-2,13.4-6.1,17.4s-9,6.7-14.7,8.2c-5.8,1.5-11.4,2.4-16.8,2.7c-13.3,0-24.7-2.5-34.1-7.4
		c-9.4-4.9-17.9-11.5-25.5-20c-3.9-3.8-7.9-5.9-12.1-6.3c-4.3-0.4-8.3,0.6-12.1,3.1c-5.5,3.6-8.3,7.9-8.6,12.9
		c-0.2,5.1,0.9,9.5,3.3,13.3c10.6,13.9,23.6,23.7,39.1,29.3c15.4,5.6,30.9,8.4,46.4,8.4c13.1,0,25.6-2.3,37.4-7.3
		s21.6-12.1,29.4-21.5c7.7-9.4,11.6-20.7,11.6-34.1c0-11.4-2.1-20.9-6.3-28.4C1877.6,437,1872.2,430.9,1865.5,426.1z"/>
	<path class="st0" d="M2121.2,384.6c-6-3.9-12.4-7.1-19-9.5c0.6-0.3,1.1-0.5,1.7-0.8c11.3-5.7,19.8-13.5,25.7-23.5
		c5.9-9.9,8.8-21,8.8-33.3c0-23.4-6.5-41.2-19.4-53.5s-31.9-18.4-57-18.4l-104.6,0.1c-5.7,0-10.6,2-14.7,5.9
		c-4.1,3.9-6.1,8.9-6.1,14.9v244.4c0,6,2,11,6.1,14.9s9,5.9,14.7,5.9H2062c10.4,0,21-1.3,31.7-3.9s20.6-7,29.6-13.3
		c8.9-6.2,16.2-14.9,21.6-25.9c5.5-11.1,8.2-24.9,8.2-41.5c0-15.2-3-28-9-38.2C2138.1,398.7,2130.5,390.6,2121.2,384.6z M2084,295.3
		c6.8,6.4,10.2,16,10.2,28.8c0,12.5-3.7,22-11.2,28.4c-7.5,6.4-16.1,9.7-25.9,10h-76.4v-76.8h75.6
		C2068,285.7,2077.3,288.9,2084,295.3z M2096,481.1c-8.7,7.5-20.1,11.2-34.3,11.2h-80.9v-89.8h78.4c7.6,0,15.2,1.1,22.9,3.2
		c7.6,2.2,14,6.4,19.2,12.7s7.8,15.8,7.8,28.6C2109.1,462.2,2104.7,473.6,2096,481.1z"/>
	<path class="st0" d="M2234.9,248.7c-3.6-2.9-9.4-4.3-17.6-4.3c-7.7,0-13.4,1.4-17.2,4.1s-5.7,7.5-5.7,14.3v6.5
		c0,6.8,1.8,11.6,5.3,14.5c3.6,2.9,9.3,4.3,17.2,4.3c8.2,0,14.1-1.4,17.8-4.1s5.5-7.6,5.5-14.7v-6.5
		C2240.2,256.3,2238.4,251.6,2234.9,248.7z"/>
	<path class="st0" d="M2217.3,315.1c-5.7,0-10.6,1.9-14.5,5.9c-3.9,3.9-5.9,8.9-5.9,14.9v174.9c0,6,2,10.9,5.9,14.9
		c3.9,3.9,8.8,5.9,14.5,5.9c6,0,10.9-1.9,14.7-5.9c3.8-3.9,5.7-8.9,5.7-14.9V335.9c0-6-1.9-10.9-5.7-14.9
		C2228.2,317.1,2223.3,315.1,2217.3,315.1z"/>
	<path class="st0" d="M2387.6,492.9c-3.3,0-6.1,0.5-8.4,1.6c-2.4,1.1-5,1.6-8,1.6s-6-0.5-8.8-1.6c-2.8-1.1-5.1-3.1-6.7-6.1
		s-2.4-7-2.4-11.9V356.8h32.7c5.5,0,10-1.8,13.7-5.3c3.7-3.6,5.5-7.9,5.5-13.1c0-5.5-1.8-10-5.5-13.7s-8.3-5.5-13.7-5.5h-32.7v-32.3
		c0-6-1.9-10.9-5.7-14.9c-3.8-3.9-8.7-5.9-14.7-5.9c-5.7,0-10.6,2-14.5,5.9c-3.9,3.9-5.9,8.9-5.9,14.9v32.3H2290
		c-5.4,0-10,1.8-13.7,5.3c-3.7,3.6-5.5,8-5.5,13.5c0,5.2,1.8,9.6,5.5,13.3s8.3,5.5,13.7,5.5h22.5v121.5c0,13,1.9,23.2,5.7,30.4
		s8.6,12.4,14.5,15.7c5.9,3.2,11.9,5.3,18.2,6.1c6.2,0.8,11.7,1.2,16.3,1.2c8.2,0,15.8-2,22.9-6.1s10.6-9.4,10.6-15.9
		c0-5.2-1.4-9.3-4.1-12.3S2390.9,492.9,2387.6,492.9z"/>
</g>
<g>
	<g>
		<circle class="st1" cx="391.6" cy="391.6" r="391.6"/>
	</g>
	<path class="st2" d="M646.6,481.4c-0.1,0-0.2,0-0.2,0l-118-257.9v-0.1c-0.1-0.2-0.2-0.3-0.3-0.5c-0.1-0.1-0.1-0.3-0.2-0.4
		c-0.1-0.1-0.2-0.2-0.2-0.4c-0.1-0.2-0.2-0.3-0.3-0.5c-0.1-0.1-0.1-0.1-0.2-0.2c-0.1-0.2-0.3-0.4-0.4-0.5l-0.1-0.1
		c-0.2-0.2-0.4-0.4-0.6-0.5l-0.1-0.1c-0.2-0.2-0.4-0.3-0.6-0.5c-0.1,0-0.1-0.1-0.2-0.1c-0.2-0.1-0.4-0.3-0.6-0.4
		c-0.1,0-0.2-0.1-0.2-0.1c-0.2-0.1-0.4-0.2-0.6-0.3c0,0,0,0-0.1,0s-0.2-0.1-0.2-0.1c-0.2-0.1-0.4-0.2-0.6-0.2
		c-0.1,0-0.3-0.1-0.4-0.1c-0.2-0.1-0.3-0.1-0.5-0.1s-0.3-0.1-0.5-0.1s-0.3-0.1-0.5-0.1s-0.3,0-0.5-0.1c-0.2,0-0.3,0-0.5,0
		s-0.3,0-0.5,0s-0.3,0-0.5,0s-0.3,0-0.5,0s-0.3,0-0.5,0.1c-0.1,0-0.3,0.1-0.4,0.1c-0.2,0-0.3,0.1-0.5,0.1s-0.3,0.1-0.5,0.1
		s-0.3,0.1-0.5,0.1c-0.2,0.1-0.3,0.1-0.5,0.2c-0.1,0-0.2,0.1-0.3,0.1h-0.1c-0.2,0.1-0.3,0.2-0.5,0.3c-0.1,0.1-0.3,0.1-0.4,0.2
		c-0.1,0.1-0.2,0.2-0.4,0.2c-0.2,0.1-0.3,0.2-0.5,0.3c-0.1,0.1-0.1,0.1-0.2,0.2c-0.2,0.1-0.4,0.3-0.5,0.4l-0.1,0.1
		c-0.2,0.2-0.4,0.4-0.5,0.6l-0.1,0.1c-0.2,0.2-0.3,0.4-0.5,0.6c0,0.1-0.1,0.1-0.1,0.2c-0.1,0.2-0.3,0.4-0.4,0.6
		c0,0.1-0.1,0.2-0.1,0.2c-0.1,0.2-0.2,0.4-0.3,0.6c0,0,0,0,0,0.1l-118,257.9c-0.1,0-0.3,0-0.4,0l-118-257.9v-0.1
		c-0.1-0.2-0.2-0.3-0.3-0.5c-0.1-0.1-0.1-0.3-0.2-0.4c-0.1-0.1-0.2-0.2-0.2-0.4c-0.1-0.2-0.2-0.3-0.3-0.5c-0.1-0.1-0.1-0.1-0.2-0.2
		c-0.1-0.2-0.3-0.4-0.4-0.5l-0.1-0.1c-0.2-0.2-0.4-0.4-0.6-0.5l-0.1-0.1c-0.2-0.2-0.4-0.3-0.6-0.5c-0.1,0-0.1-0.1-0.2-0.1
		c-0.2-0.1-0.4-0.3-0.6-0.4c-0.1,0-0.2-0.1-0.2-0.1c-0.2-0.1-0.4-0.2-0.6-0.3c0,0,0,0-0.1,0s-0.2-0.1-0.2-0.1
		c-0.2-0.1-0.4-0.2-0.6-0.2c-0.1,0-0.3-0.1-0.4-0.1c-0.2-0.1-0.3-0.1-0.5-0.1s-0.3-0.1-0.5-0.1s-0.3-0.1-0.5-0.1s-0.3,0-0.5-0.1
		c-0.2,0-0.3,0-0.5,0s-0.3,0-0.5,0s-0.3,0-0.5,0s-0.3,0-0.5,0s-0.3,0-0.5,0.1c-0.1,0-0.3,0.1-0.4,0.1c-0.2,0-0.3,0.1-0.5,0.1
		s-0.3,0.1-0.5,0.1s-0.3,0.1-0.5,0.1c-0.2,0.1-0.3,0.1-0.5,0.2c-0.1,0-0.2,0.1-0.3,0.1H261c-0.2,0.1-0.3,0.2-0.5,0.3
		c-0.1,0.1-0.3,0.1-0.4,0.2c-0.1,0.1-0.2,0.2-0.4,0.2c-0.2,0.1-0.3,0.2-0.5,0.3c-0.1,0.1-0.1,0.1-0.2,0.2c-0.2,0.1-0.4,0.3-0.5,0.4
		l-0.1,0.1c-0.2,0.2-0.4,0.4-0.6,0.6l-0.1,0.1c-0.2,0.2-0.3,0.4-0.5,0.6c0,0.1-0.1,0.1-0.1,0.2c-0.1,0.2-0.3,0.4-0.4,0.6
		c0,0.1-0.1,0.2-0.1,0.2c-0.1,0.2-0.2,0.4-0.3,0.6c0,0,0,0,0,0.1l-118,257.9c-0.3,0-0.6,0-0.8,0c-21.1,0-38.2,16.6-38.2,37
		c0,20.4,17.1,37,38.2,37s38.2-16.6,38.2-37c0-13.2-7.2-24.9-18-31.4l107.7-235.4l106.6,235c-11.2,6.5-18.7,18.3-18.7,31.8
		c0,20.5,17.1,37,38.2,37s38.2-16.6,38.2-37c0-13.4-7.3-25.1-18.2-31.6l107.6-235.2l107.6,235.1c-11,6.5-18.4,18.3-18.4,31.7
		c0,20.5,17.1,37,38.2,37s38.2-16.6,38.2-37S667.7,481.4,646.6,481.4z"/>
</g>
</svg>
