<?xml version="1.0" encoding="UTF-8"?>
<svg width="19px" height="14px" viewBox="0 0 19 14" version="1.1" xmlns="http://www.w3.org/2000/svg" xmlns:xlink="http://www.w3.org/1999/xlink">
    <!-- Generator: Sketch 47.1 (45422) - http://www.bohemiancoding.com/sketch -->
    <title>Open Folder Icon</title>
    <desc>Created with Sketch.</desc>
    <defs></defs>
    <g id="Symbols" stroke="none" stroke-width="1" fill="none" fill-rule="evenodd">
        <g id="Open-Folder-Icon" transform="translate(1.000000, 1.000000)" stroke="#709FBE" stroke-width="1.5">
            <path d="M7,2 C7,0.8954305 6.1045695,-2.02906125e-16 5,0 L2,0 L2,0 C0.8954305,2.02906125e-16 -1.3527075e-16,0.8954305 0,2 L0,2 L0,10 C6.76353751e-17,10.5522847 0.223857625,11.0522847 0.585786438,11.4142136 C0.94771525,11.7761424 1.44771525,12 2,12 L13,12 C13.5861161,12 14.1133457,11.7478766 14.4791517,11.3461668 C14.7418352,11.1640042 14.9404262,10.9480818 15.0379649,10.716577 L16.5372682,7.17914424 C16.8149196,6.52792085 16.1833841,5.99999999 15.1262331,6 L15,6 L15,4 C15,2.8954305 14.1045695,2 13,2 L7,2 Z" id="Combined-Shape"></path>
            <path d="M4.59845691,6.00000012 L15.1262331,6 C16.1833841,5.99999999 16.8149196,6.52792085 16.5372682,7.17914424 L15.0379649,10.716577 C14.7635882,11.3678004 13.6895873,11.8957213 12.6386559,11.8957213 L2.17281828,11.8957214 C1.12188692,11.8957214 0.48442841,11.3678006 0.74947579,10.7165772 L2.19810203,7.1791444 C2.4664241,6.527921 3.54130595,6.00000013 4.59845691,6.00000012 Z" id="Rectangle-2"></path>
        </g>
    </g>
</svg>